<mxfile host="app.diagrams.net" modified="2022-11-23T16:20:20.665Z" agent="5.0 (Windows NT 10.0; Win64; x64) AppleWebKit/537.36 (KHTML, like Gecko) Chrome/107.0.0.0 Safari/537.36" etag="ibNkERkhHfUHxvcSXdrX" version="15.8.8" type="github">
  <diagram id="YYdmfMmHKFKd6aKUU76Y" name="Page-1">
    <mxGraphModel dx="1918" dy="935" grid="1" gridSize="10" guides="1" tooltips="1" connect="1" arrows="1" fold="1" page="1" pageScale="1" pageWidth="850" pageHeight="1100" math="0" shadow="0">
      <root>
        <mxCell id="0" />
        <mxCell id="1" parent="0" />
        <mxCell id="f8Zw-Bb1OCc7IDSp_8TN-6" value="" style="shape=folder;fontStyle=1;spacingTop=10;tabWidth=130;tabHeight=30;tabPosition=left;html=1;" vertex="1" parent="1">
          <mxGeometry x="10" y="10" width="430" height="660" as="geometry" />
        </mxCell>
        <mxCell id="f8Zw-Bb1OCc7IDSp_8TN-1" value="Server Interno" style="verticalAlign=top;align=left;spacingTop=8;spacingLeft=2;spacingRight=12;shape=cube;size=10;direction=south;fontStyle=4;html=1;" vertex="1" parent="1">
          <mxGeometry x="70" y="100" width="250" height="230" as="geometry" />
        </mxCell>
        <mxCell id="f8Zw-Bb1OCc7IDSp_8TN-2" value="Procedura 1" style="shape=module;align=left;spacingLeft=20;align=center;verticalAlign=top;" vertex="1" parent="1">
          <mxGeometry x="140" y="130" width="100" height="50" as="geometry" />
        </mxCell>
        <mxCell id="f8Zw-Bb1OCc7IDSp_8TN-3" value="Procedura N" style="shape=module;align=left;spacingLeft=20;align=center;verticalAlign=top;" vertex="1" parent="1">
          <mxGeometry x="140" y="210" width="100" height="50" as="geometry" />
        </mxCell>
        <mxCell id="f8Zw-Bb1OCc7IDSp_8TN-5" value="AS400" style="verticalAlign=top;align=left;spacingTop=8;spacingLeft=2;spacingRight=12;shape=cube;size=10;direction=south;fontStyle=4;html=1;" vertex="1" parent="1">
          <mxGeometry x="70" y="390" width="250" height="250" as="geometry" />
        </mxCell>
        <mxCell id="f8Zw-Bb1OCc7IDSp_8TN-8" value="Rete interna" style="text;html=1;strokeColor=none;fillColor=none;align=center;verticalAlign=middle;whiteSpace=wrap;rounded=0;" vertex="1" parent="1">
          <mxGeometry x="10" y="10" width="130" height="30" as="geometry" />
        </mxCell>
        <mxCell id="f8Zw-Bb1OCc7IDSp_8TN-11" value="FTP" style="endArrow=none;html=1;rounded=0;" edge="1" parent="1" source="f8Zw-Bb1OCc7IDSp_8TN-5" target="f8Zw-Bb1OCc7IDSp_8TN-1">
          <mxGeometry width="50" height="50" relative="1" as="geometry">
            <mxPoint x="230" y="480" as="sourcePoint" />
            <mxPoint x="280" y="430" as="targetPoint" />
          </mxGeometry>
        </mxCell>
        <mxCell id="f8Zw-Bb1OCc7IDSp_8TN-15" value="" style="shape=folder;fontStyle=1;spacingTop=10;tabWidth=120;tabHeight=30;tabPosition=left;html=1;" vertex="1" parent="1">
          <mxGeometry x="560" y="10" width="400" height="390" as="geometry" />
        </mxCell>
        <mxCell id="f8Zw-Bb1OCc7IDSp_8TN-16" value="ServerPlan" style="text;html=1;align=center;verticalAlign=middle;resizable=0;points=[];autosize=1;strokeColor=none;fillColor=none;" vertex="1" parent="1">
          <mxGeometry x="560" y="15" width="70" height="20" as="geometry" />
        </mxCell>
        <mxCell id="f8Zw-Bb1OCc7IDSp_8TN-17" value="Server Esterno (VM)" style="verticalAlign=top;align=left;spacingTop=8;spacingLeft=2;spacingRight=12;shape=cube;size=10;direction=south;fontStyle=4;html=1;" vertex="1" parent="1">
          <mxGeometry x="580" y="60" width="340" height="310" as="geometry" />
        </mxCell>
        <mxCell id="f8Zw-Bb1OCc7IDSp_8TN-18" value="Procedure Interne" style="shape=module;align=left;spacingLeft=20;align=center;verticalAlign=top;" vertex="1" parent="1">
          <mxGeometry x="125" y="485" width="130" height="60" as="geometry" />
        </mxCell>
        <mxCell id="f8Zw-Bb1OCc7IDSp_8TN-24" value="IIS" style="shape=module;align=left;spacingLeft=20;align=center;verticalAlign=top;" vertex="1" parent="1">
          <mxGeometry x="610" y="150" width="130" height="60" as="geometry" />
        </mxCell>
        <mxCell id="f8Zw-Bb1OCc7IDSp_8TN-25" value="Tomcat" style="shape=module;align=left;spacingLeft=20;align=center;verticalAlign=top;" vertex="1" parent="1">
          <mxGeometry x="610" y="250" width="130" height="60" as="geometry" />
        </mxCell>
        <mxCell id="f8Zw-Bb1OCc7IDSp_8TN-26" value="Oracle" style="shape=module;align=left;spacingLeft=20;align=center;verticalAlign=top;" vertex="1" parent="1">
          <mxGeometry x="760" y="150" width="130" height="60" as="geometry" />
        </mxCell>
        <mxCell id="f8Zw-Bb1OCc7IDSp_8TN-27" value="FTP" style="endArrow=none;html=1;rounded=0;" edge="1" parent="1" source="f8Zw-Bb1OCc7IDSp_8TN-1" target="f8Zw-Bb1OCc7IDSp_8TN-17">
          <mxGeometry width="50" height="50" relative="1" as="geometry">
            <mxPoint x="740" y="490" as="sourcePoint" />
            <mxPoint x="790" y="440" as="targetPoint" />
          </mxGeometry>
        </mxCell>
        <mxCell id="f8Zw-Bb1OCc7IDSp_8TN-28" value="Procedure interne" style="shape=module;align=left;spacingLeft=20;align=center;verticalAlign=top;" vertex="1" parent="1">
          <mxGeometry x="760" y="250" width="130" height="60" as="geometry" />
        </mxCell>
      </root>
    </mxGraphModel>
  </diagram>
</mxfile>
